<svg xmlns="http://www.w3.org/2000/svg" width="28" height="28" viewBox="0 0 26 32.31"><defs><style>.cls-1{fill:#dfdfe8;}.cls-2{fill:none;stroke:#000;}.cls-3{fill:#a9dfe8;}.cls-4{font-size:8px;font-family:Spectral-Regular, Spectral;}.cls-5{letter-spacing:-0.02em;}</style></defs><title>CoatofArms_Marker new</title><g id="outline"><path class="cls-1" d="M1012.5,996.54V1008a1.45,1.45,0,0,1-1.47,1.43h-5l-6,6.09-6-6.09h-5a1.45,1.45,0,0,1-1.47-1.43V986a1.59,1.59,0,0,1,1.62-1.56h21.76a1.59,1.59,0,0,1,1.62,1.56Z" transform="translate(-987 -983.96)"/><line class="cls-2" x1="0.5" y1="2.06" x2="0.5" y2="12.58"/><path class="cls-2" d="M987.5,986a1.59,1.59,0,0,1,1.62-1.56" transform="translate(-987 -983.96)"/><line class="cls-2" x1="13" y1="0.5" x2="2.12" y2="0.5"/><line class="cls-2" x1="0.5" y1="24.08" x2="0.5" y2="12.58"/><path class="cls-2" d="M987.5,1008a1.45,1.45,0,0,0,1.47,1.43" transform="translate(-987 -983.96)"/><line class="cls-2" x1="25.5" y1="2.06" x2="25.5" y2="12.58"/><path class="cls-2" d="M1012.5,986a1.59,1.59,0,0,0-1.62-1.56" transform="translate(-987 -983.96)"/><line class="cls-2" x1="13" y1="0.5" x2="23.88" y2="0.5"/><line class="cls-2" x1="25.5" y1="24.08" x2="25.5" y2="12.58"/><path class="cls-2" d="M1012.5,1008a1.45,1.45,0,0,1-1.47,1.43" transform="translate(-987 -983.96)"/><polyline class="cls-2" points="1.97 25.51 7 25.51 13 31.6 19.03 25.51 24.03 25.51"/></g><g id="crest"><polygon class="cls-3" points="22.41 6.32 21.5 7.32 21.58 17.46 13 23.46 4.42 17.46 4.5 7.32 3.59 6.32 5.5 4.46 11.5 3.46 13 3.46 14.5 3.46 20.5 4.46 22.41 6.32"/><polygon class="cls-2" points="13 3.46 11.5 3.46 5.5 4.46 3.59 6.32 4.5 7.32 4.42 17.46 13 23.46 21.58 17.46 21.5 7.32 22.41 6.32 20.5 4.46 14.5 3.46 13 3.46"/></g><g id="text"><text class="cls-4" transform="translate(7.57 15.37)"><tspan class="cls-5">P</tspan><tspan x="4.94" y="0">V</tspan></text></g></svg>