<svg xmlns="http://www.w3.org/2000/svg" width="28" height="28" viewBox="0 0 26 32.31"><defs><style>.cls-1{fill:#ea3c5c;}.cls-2,.cls-3{fill:none;stroke:#000;}.cls-3{stroke-width:0.88px;}</style></defs><title>Cross_Marker new</title><g id="Layer_3" data-name="Layer 3"><path class="cls-1" d="M1012.5,996.54V1008a1.45,1.45,0,0,1-1.47,1.43h-5l-6,6.09-6-6.09h-5a1.45,1.45,0,0,1-1.47-1.43V986a1.59,1.59,0,0,1,1.62-1.56h21.76a1.59,1.59,0,0,1,1.62,1.56Zm-6.5.46v-2h-5.35v-5.94h-1.3V995H994v2h5.35v11h1.3V997Z" transform="translate(-987 -983.96)"/><rect x="13.65" y="11.06" width="5.35" height="1.98"/><rect x="12.35" y="13.04" width="1.3" height="11.04"/><rect x="12.35" y="11.06" width="1.3" height="1.98"/><rect x="12.35" y="5.12" width="1.3" height="5.94"/><rect x="7" y="11.06" width="5.35" height="1.98"/><line class="cls-2" x1="0.5" y1="2.06" x2="0.5" y2="12.58"/><path class="cls-2" d="M987.5,986a1.59,1.59,0,0,1,1.62-1.56" transform="translate(-987 -983.96)"/><line class="cls-2" x1="13" y1="0.5" x2="2.12" y2="0.5"/><line class="cls-2" x1="0.5" y1="24.08" x2="0.5" y2="12.58"/><path class="cls-2" d="M987.5,1008a1.45,1.45,0,0,0,1.47,1.43" transform="translate(-987 -983.96)"/><line class="cls-2" x1="25.5" y1="2.06" x2="25.5" y2="12.58"/><path class="cls-2" d="M1012.5,986a1.59,1.59,0,0,0-1.62-1.56" transform="translate(-987 -983.96)"/><line class="cls-2" x1="13" y1="0.5" x2="23.88" y2="0.5"/><line class="cls-2" x1="25.5" y1="24.08" x2="25.5" y2="12.58"/><path class="cls-2" d="M1012.5,1008a1.45,1.45,0,0,1-1.47,1.43" transform="translate(-987 -983.96)"/><polyline class="cls-2" points="1.97 25.51 7 25.51 13 31.6 19.03 25.51 24.03 25.51"/><polyline class="cls-3" points="12.35 11.06 12.35 5.12 13.65 5.12 13.65 11.06"/><polyline class="cls-3" points="13.65 13.04 13.65 24.08 12.35 24.08 12.35 13.04"/></g></svg>