<svg xmlns="http://www.w3.org/2000/svg" width="28" height="28" viewBox="0 0 26 32.31"><defs><style>.cls-1{fill:#beefab;}.cls-2{fill:none;stroke:#000;}.cls-3{fill:#4ec396;}</style></defs><title>Decoration_Marker new</title><g id="Outline"><path class="cls-1" d="M1012.5,996.53V1008a1.45,1.45,0,0,1-1.47,1.43h-5l-6,6.09-6-6.09h-5a1.45,1.45,0,0,1-1.47-1.43V986a1.59,1.59,0,0,1,1.62-1.56h21.76a1.59,1.59,0,0,1,1.62,1.56Z" transform="translate(-987 -983.95)"/><line class="cls-2" x1="0.5" y1="2.06" x2="0.5" y2="12.58"/><path class="cls-2" d="M987.5,986a1.59,1.59,0,0,1,1.62-1.56" transform="translate(-987 -983.95)"/><line class="cls-2" x1="13" y1="0.5" x2="2.12" y2="0.5"/><line class="cls-2" x1="0.5" y1="24.08" x2="0.5" y2="12.58"/><path class="cls-2" d="M987.5,1008a1.45,1.45,0,0,0,1.47,1.43" transform="translate(-987 -983.95)"/><line class="cls-2" x1="25.5" y1="2.06" x2="25.5" y2="12.58"/><path class="cls-2" d="M1012.5,986a1.59,1.59,0,0,0-1.62-1.56" transform="translate(-987 -983.95)"/><line class="cls-2" x1="13" y1="0.5" x2="23.88" y2="0.5"/><line class="cls-2" x1="25.5" y1="24.08" x2="25.5" y2="12.58"/><path class="cls-2" d="M1012.5,1008a1.45,1.45,0,0,1-1.47,1.43" transform="translate(-987 -983.95)"/><polyline class="cls-2" points="1.97 25.51 7 25.51 13 31.6 19.03 25.51 24.03 25.51"/></g><g id="CIRCLES"><circle class="cls-3" cx="19.94" cy="12.08" r="2.5"/><path class="cls-3" d="M1009.44,1003.51v.11h-19v-2.53a.53.53,0,0,1,.56-.5h18a.43.43,0,0,1,.44.42Z" transform="translate(-987 -983.95)"/><circle class="cls-3" cx="5.94" cy="12.08" r="2.5"/><circle class="cls-3" cx="12.94" cy="12.08" r="2.5"/><path class="cls-3" d="M1009.44,991a.44.44,0,0,1-.44.43H991a.53.53,0,0,1-.56-.5v-2.53h19V991Z" transform="translate(-987 -983.95)"/><polyline class="cls-2" points="2.94 4.49 3.44 4.49 22.44 4.49 22.94 4.49"/><line class="cls-2" x1="3.44" y1="7.02" x2="3.44" y2="4.52"/><line class="cls-2" x1="22.44" y1="7.09" x2="22.44" y2="4.59"/><line class="cls-2" x1="4" y1="7.52" x2="22" y2="7.52"/><path class="cls-2" d="M990.44,991a.53.53,0,0,0,.56.5" transform="translate(-987 -983.95)"/><path class="cls-2" d="M1009.44,991a.44.44,0,0,1-.44.43" transform="translate(-987 -983.95)"/><polyline class="cls-2" points="2.94 19.67 3.44 19.67 22.44 19.67 22.94 19.67"/><line class="cls-2" x1="3.44" y1="17.14" x2="3.44" y2="19.64"/><line class="cls-2" x1="22.44" y1="17.06" x2="22.44" y2="19.56"/><line class="cls-2" x1="4" y1="16.64" x2="22" y2="16.64"/><path class="cls-2" d="M990.44,1001.09a.53.53,0,0,1,.56-.5" transform="translate(-987 -983.95)"/><path class="cls-2" d="M1009.44,1001a.43.43,0,0,0-.44-.42" transform="translate(-987 -983.95)"/><circle class="cls-2" cx="12.94" cy="12.08" r="2.5"/><circle class="cls-2" cx="5.94" cy="12.08" r="2.5"/><circle class="cls-2" cx="19.94" cy="12.08" r="2.5"/></g></svg>