<svg xmlns="http://www.w3.org/2000/svg" width="28" height="28" viewBox="0 0 26 32.31"><defs><style>.cls-1{fill:#dbada1;}.cls-2{fill:none;stroke:#000;}.cls-3{fill:#c35525;}</style></defs><title>Flagstaff_Marker new</title><g id="Outline"><path class="cls-1" d="M1012.5,996.54V1008a1.45,1.45,0,0,1-1.47,1.43h-5l-6,6.09-6-6.09h-5a1.45,1.45,0,0,1-1.47-1.43V986a1.59,1.59,0,0,1,1.62-1.56h21.76a1.59,1.59,0,0,1,1.62,1.56Z" transform="translate(-987 -983.96)"/><line class="cls-2" x1="0.5" y1="2.06" x2="0.5" y2="12.58"/><path class="cls-2" d="M987.5,986a1.59,1.59,0,0,1,1.62-1.56" transform="translate(-987 -983.96)"/><line class="cls-2" x1="13" y1="0.5" x2="2.12" y2="0.5"/><line class="cls-2" x1="0.5" y1="24.08" x2="0.5" y2="12.58"/><path class="cls-2" d="M987.5,1008a1.45,1.45,0,0,0,1.47,1.43" transform="translate(-987 -983.96)"/><line class="cls-2" x1="25.5" y1="2.06" x2="25.5" y2="12.58"/><path class="cls-2" d="M1012.5,986a1.59,1.59,0,0,0-1.62-1.56" transform="translate(-987 -983.96)"/><line class="cls-2" x1="13" y1="0.5" x2="23.88" y2="0.5"/><line class="cls-2" x1="25.5" y1="24.08" x2="25.5" y2="12.58"/><path class="cls-2" d="M1012.5,1008a1.45,1.45,0,0,1-1.47,1.43" transform="translate(-987 -983.96)"/><polyline class="cls-2" points="1.97 25.51 7 25.51 13 31.6 19.03 25.51 24.03 25.51"/></g><g id="Flag_Body" data-name="Flag Body"><polygon class="cls-3" points="20.5 5.52 20.5 11.58 12 11.58 11.5 11.58 11.5 5.52 12 5.52 20.5 5.52"/><path class="cls-3" d="M1002,1006.54v1H995v-1h1.5c.53,0,1-.24,1-.54v-3c-.53,0-1-.22-1-.5,0-.82.87-1.49,2-1.51s2,.69,2,1.51c0,.28-.43.5-1,.5v3c0,.3.43.54,1,.54Z" transform="translate(-987 -983.96)"/><circle class="cls-3" cx="11.5" cy="3.62" r="1"/><polyline class="cls-2" points="11.5 17.02 11.5 11.58 11.5 5.52 11.5 5.02"/><circle class="cls-2" cx="11.5" cy="3.62" r="1"/><path class="cls-2" d="M998.5,1007.5H1002v-1h-1.5c-.53,0-1-.24-1-.54v-3c.53,0,1-.22,1-.5,0-.82-.87-1.49-2-1.51h-.08" transform="translate(-987 -983.96)"/><path class="cls-2" d="M998.5,1007.5H995v-1h1.5c.53,0,1-.24,1-.54v-3c-.53,0-1-.22-1-.5,0-.82.87-1.49,2-1.51h.08" transform="translate(-987 -983.96)"/><polyline class="cls-2" points="12 11.58 20.5 11.58 20.5 5.52 12 5.52"/></g></svg>