<svg id="Layer_2" data-name="Layer 2" xmlns="http://www.w3.org/2000/svg" width="28" height="28" viewBox="0 0 26 32.31"><defs><style>.cls-1{fill:#afbdc6;}.cls-2{fill:none;stroke:#000;}.cls-3{fill:#4170a8;}</style></defs><title>Fountain_Marker new</title><path class="cls-1" d="M1012.5,996.54V1008a1.45,1.45,0,0,1-1.47,1.43h-5l-6,6.09-6-6.09h-5a1.45,1.45,0,0,1-1.47-1.43V986a1.59,1.59,0,0,1,1.62-1.56h21.76a1.59,1.59,0,0,1,1.62,1.56Z" transform="translate(-987 -983.96)"/><line class="cls-2" x1="0.5" y1="2.06" x2="0.5" y2="12.58"/><path class="cls-2" d="M987.5,986a1.59,1.59,0,0,1,1.62-1.56" transform="translate(-987 -983.96)"/><line class="cls-2" x1="13" y1="0.5" x2="2.12" y2="0.5"/><line class="cls-2" x1="0.5" y1="24.08" x2="0.5" y2="12.58"/><path class="cls-2" d="M987.5,1008a1.45,1.45,0,0,0,1.47,1.43" transform="translate(-987 -983.96)"/><line class="cls-2" x1="25.5" y1="2.06" x2="25.5" y2="12.58"/><path class="cls-2" d="M1012.5,986a1.59,1.59,0,0,0-1.62-1.56" transform="translate(-987 -983.96)"/><line class="cls-2" x1="13" y1="0.5" x2="23.88" y2="0.5"/><line class="cls-2" x1="25.5" y1="24.08" x2="25.5" y2="12.58"/><path class="cls-2" d="M1012.5,1008a1.45,1.45,0,0,1-1.47,1.43" transform="translate(-987 -983.96)"/><polyline class="cls-2" points="1.97 25.51 7 25.51 13 31.6 19.03 25.51 24.03 25.51"/><path class="cls-2" d="M1004.54,1003.46c0,.55.26,1,.59,1" transform="translate(-987 -983.96)"/><path class="cls-3" d="M1008.54,1006v1.46h-11V1006c0-.87,1.53-1.58,3.42-1.58.32,0,.58-.45.58-1V994a2.78,2.78,0,0,0-3-2.5h-2.21v.94h-3c0-2.2,1.32-4,3-4,.9,0,1.63.48,1.63,1.08h2.83c0-1.7,1-3.08,2.25-3.08s2.4,1.38,2.4,3.08l-.9,1.34v12.54l.59,1C1007,1004.46,1008.54,1005.17,1008.54,1006Z" transform="translate(-987 -983.96)"/><polyline class="cls-2" points="16.04 23.54 10.54 23.54 10.04 23.54"/><polyline class="cls-2" points="10.54 22.08 10.54 23.54 10.54 23.58"/><path class="cls-2" d="M997.54,1006c0-.87,1.53-1.58,3.42-1.58" transform="translate(-987 -983.96)"/><path class="cls-2" d="M1001.54,1003.46c0,.55-.26,1-.58,1" transform="translate(-987 -983.96)"/><line class="cls-2" x1="14.54" y1="10.08" x2="14.54" y2="19.5"/><polyline class="cls-2" points="16.04 23.54 21.54 23.54 22.04 23.54"/><polyline class="cls-2" points="21.54 22.08 21.54 23.54 21.54 23.58"/><path class="cls-2" d="M1008.54,1006c0-.87-1.53-1.58-3.41-1.58" transform="translate(-987 -983.96)"/><line class="cls-2" x1="17.54" y1="10.08" x2="17.54" y2="19.5"/><path class="cls-2" d="M1001.54,994a2.78,2.78,0,0,0-3-2.5h-2.21v.94h-3c0-2.2,1.32-4,3-4,.9,0,1.63.48,1.63,1.08h2.83c0-1.7,1-3.08,2.25-3.08s2.4,1.38,2.4,3.08l-.9,1.34V994" transform="translate(-987 -983.96)"/><ellipse class="cls-3" cx="8.22" cy="13.4" rx="1.5" ry="2.5"/><ellipse class="cls-2" cx="8.22" cy="13.4" rx="1.5" ry="2.5"/></svg>