<svg xmlns="http://www.w3.org/2000/svg" width="28" height="28" viewBox="0 0 26 32.31"><defs><style>.cls-1{fill:#bfc9d4;}.cls-2{fill:none;stroke:#000;}.cls-3{fill:#4ec3e1;}</style></defs><title>Fragment_Marker new</title><g id="Outline"><path class="cls-1" d="M1012.5,996.54V1008a1.45,1.45,0,0,1-1.47,1.43h-5l-6,6.09-6-6.09h-5a1.45,1.45,0,0,1-1.47-1.43V986a1.59,1.59,0,0,1,1.62-1.56h21.76a1.59,1.59,0,0,1,1.62,1.56Z" transform="translate(-987 -983.96)"/><line class="cls-2" x1="0.5" y1="2.06" x2="0.5" y2="12.58"/><path class="cls-2" d="M987.5,986a1.59,1.59,0,0,1,1.62-1.56" transform="translate(-987 -983.96)"/><line class="cls-2" x1="13" y1="0.5" x2="2.12" y2="0.5"/><line class="cls-2" x1="0.5" y1="24.08" x2="0.5" y2="12.58"/><path class="cls-2" d="M987.5,1008a1.45,1.45,0,0,0,1.47,1.43" transform="translate(-987 -983.96)"/><line class="cls-2" x1="25.5" y1="2.06" x2="25.5" y2="12.58"/><path class="cls-2" d="M1012.5,986a1.59,1.59,0,0,0-1.62-1.56" transform="translate(-987 -983.96)"/><line class="cls-2" x1="13" y1="0.5" x2="23.88" y2="0.5"/><line class="cls-2" x1="25.5" y1="24.08" x2="25.5" y2="12.58"/><path class="cls-2" d="M1012.5,1008a1.45,1.45,0,0,1-1.47,1.43" transform="translate(-987 -983.96)"/><polyline class="cls-2" points="1.97 25.51 7 25.51 13 31.6 19.03 25.51 24.03 25.51"/></g><g id="Border"><path class="cls-3" d="M1009.17,991.28v2.64l-3.73.58v2.29l-1.44.46.33,1.67-1.75.58-1.25.83-.83,1.25-1.92.25-1.08,1.59h-5.08a1.11,1.11,0,0,1-1.09-1.13v-11a2.07,2.07,0,0,1,2.17-1.95h14A1.83,1.83,0,0,1,1009.17,991.28Z" transform="translate(-987 -983.96)"/><path class="cls-2" d="M1004.33,998.92l-1.75.58-1.25.83-.83,1.25-1.92.25-1.08,1.59h-5.08a1.11,1.11,0,0,1-1.09-1.13v-11a2.07,2.07,0,0,1,2.17-1.95h14a1.83,1.83,0,0,1,1.67,1.95v2.64l-3.73.58v2.29l-1.44.46Z" transform="translate(-987 -983.96)"/></g></svg>