<svg xmlns="http://www.w3.org/2000/svg" width="28" height="28" viewBox="0 0 26 32.31"><defs><style>.cls-1{fill:#b5eca8;}.cls-2{fill:none;stroke:#000;}.cls-3{fill:#9ed0a8;}.cls-4{font-size:8px;font-family:Spectral-ExtraLight, Spectral;}.cls-5{letter-spacing:-0.04em;}</style></defs><title>Inscription_Marker new</title><g id="border"><path class="cls-1" d="M1012.5,996.53V1008a1.45,1.45,0,0,1-1.47,1.43h-5l-6,6.09-6-6.09h-5a1.45,1.45,0,0,1-1.47-1.43V986a1.59,1.59,0,0,1,1.62-1.56h21.76a1.59,1.59,0,0,1,1.62,1.56Z" transform="translate(-987 -983.95)"/><line class="cls-2" x1="0.5" y1="2.06" x2="0.5" y2="12.58"/><path class="cls-2" d="M987.5,986a1.59,1.59,0,0,1,1.62-1.56" transform="translate(-987 -983.95)"/><line class="cls-2" x1="13" y1="0.5" x2="2.12" y2="0.5"/><line class="cls-2" x1="0.5" y1="24.08" x2="0.5" y2="12.58"/><path class="cls-2" d="M987.5,1008a1.45,1.45,0,0,0,1.47,1.43" transform="translate(-987 -983.95)"/><line class="cls-2" x1="25.5" y1="2.06" x2="25.5" y2="12.58"/><path class="cls-2" d="M1012.5,986a1.59,1.59,0,0,0-1.62-1.56" transform="translate(-987 -983.95)"/><line class="cls-2" x1="13" y1="0.5" x2="23.88" y2="0.5"/><line class="cls-2" x1="25.5" y1="24.08" x2="25.5" y2="12.58"/><path class="cls-2" d="M1012.5,1008a1.45,1.45,0,0,1-1.47,1.43" transform="translate(-987 -983.95)"/><polyline class="cls-2" points="1.97 25.51 7 25.51 13 31.6 19.03 25.51 24.03 25.51"/></g><g id="inner_border" data-name="inner border"><rect class="cls-3" x="3.42" y="3.59" width="18.96" height="19"/><rect class="cls-2" x="3.42" y="3.59" width="18.96" height="19"/></g><g id="Layer_4" data-name="Layer 4"><text class="cls-4" transform="translate(5.34 11.55)"><tspan class="cls-5">P</tspan><tspan x="4.3" y="0">AX</tspan></text><text class="cls-4" transform="translate(4.96 19.05)">TIBI</text></g></svg>