<svg xmlns="http://www.w3.org/2000/svg" width="28" height="28" viewBox="0 0 26 32.31"><defs><style>.cls-1{fill:#decaeb;}.cls-2{fill:none;stroke:#000;}.cls-3{fill:#d89bc9;}</style></defs><title>Patera_Marker new</title><g id="outline"><path class="cls-1" d="M1012.5,996.53V1008a1.45,1.45,0,0,1-1.47,1.43h-5l-6,6.09-6-6.09h-5a1.45,1.45,0,0,1-1.47-1.43V986a1.6,1.6,0,0,1,1.63-1.56h21.75a1.59,1.59,0,0,1,1.62,1.56Z" transform="translate(-987 -983.95)"/><line class="cls-2" x1="0.5" y1="2.06" x2="0.5" y2="12.58"/><path class="cls-2" d="M987.5,986a1.6,1.6,0,0,1,1.63-1.56" transform="translate(-987 -983.95)"/><line class="cls-2" x1="13" y1="0.5" x2="2.13" y2="0.5"/><line class="cls-2" x1="0.5" y1="24.08" x2="0.5" y2="12.58"/><path class="cls-2" d="M987.5,1008a1.45,1.45,0,0,0,1.47,1.43" transform="translate(-987 -983.95)"/><line class="cls-2" x1="25.5" y1="2.06" x2="25.5" y2="12.58"/><path class="cls-2" d="M1012.5,986a1.59,1.59,0,0,0-1.62-1.56" transform="translate(-987 -983.95)"/><line class="cls-2" x1="13" y1="0.5" x2="23.88" y2="0.5"/><line class="cls-2" x1="25.5" y1="24.08" x2="25.5" y2="12.58"/><path class="cls-2" d="M1012.5,1008a1.45,1.45,0,0,1-1.47,1.43" transform="translate(-987 -983.95)"/><polyline class="cls-2" points="1.97 25.51 7 25.51 13 31.6 19.03 25.51 24.03 25.51"/></g><g id="OUter_ring" data-name="OUter ring"><circle class="cls-3" cx="13" cy="13" r="10.5"/><circle class="cls-2" cx="13" cy="13" r="10.5"/></g><g id="third_ring" data-name="third ring"><circle class="cls-1" cx="13" cy="13" r="7.5"/><circle class="cls-2" cx="13" cy="13" r="7.5"/></g><g id="inner_design" data-name="inner design"><path class="cls-1" d="M1001.75,995.38c1.62,0,2.94.7,2.94,1.57s-1.32,1.58-2.94,1.58c0,1.59-.78,2.88-1.75,2.88s-1.75-1.29-1.75-2.88c-1.62,0-2.94-.7-2.94-1.58s1.32-1.57,2.94-1.57c0-1.59.78-2.88,1.75-2.88S1001.75,993.79,1001.75,995.38Z" transform="translate(-987 -983.95)"/><path class="cls-2" d="M1001.75,995.38c0-1.59-.78-2.88-1.75-2.88s-1.75,1.29-1.75,2.88c-1.62,0-2.94.7-2.94,1.57s1.32,1.58,2.94,1.58c0,1.59.78,2.88,1.75,2.88s1.75-1.29,1.75-2.88c1.62,0,2.94-.7,2.94-1.58S1003.37,995.38,1001.75,995.38Z" transform="translate(-987 -983.95)"/><line class="cls-2" x1="12.44" y1="11.05" x2="12.44" y2="13.43"/><line class="cls-2" x1="14.94" y1="12.55" x2="12.44" y2="12.55"/><line class="cls-2" x1="13.44" y1="14.93" x2="13.44" y2="12.55"/><line class="cls-2" x1="10.94" y1="13.43" x2="13.94" y2="13.43"/><line class="cls-2" x1="9.5" y1="9.05" x2="9.5" y2="10.05"/><line class="cls-2" x1="16.44" y1="9.05" x2="16.44" y2="10.05"/><line class="cls-2" x1="16.44" y1="16.05" x2="16.44" y2="17.05"/><line class="cls-2" x1="9.5" y1="16.05" x2="9.5" y2="17.05"/></g></svg>