<svg xmlns="http://www.w3.org/2000/svg" width="28" height="28" viewBox="0 0 416 516.98"><defs><style>.cls-1{fill:#e5625c;}.cls-2{fill:none;stroke:#000;stroke-width:16px;}.cls-3{fill:#8e425c;}</style></defs><title>Relief_Marker new</title><g id="Layer_2" data-name="Layer 2"><path class="cls-1" d="M1200,944.47v184c0,12.64-10.56,22.88-23.52,22.88h-80L1000,1248.79l-96-97.44H823.52c-13,0-23.52-10.24-23.52-22.88V776.15c0-13.76,11.68-25,26.08-25h348c14.24,0,25.92,11.2,25.92,25Z" transform="translate(-792 -743.19)"/><line class="cls-2" x1="8" y1="32.96" x2="8" y2="201.28"/><path class="cls-2" d="M800,776.15c0-13.76,11.68-25,26.08-25" transform="translate(-792 -743.19)"/><line class="cls-2" x1="208" y1="8" x2="34.08" y2="8"/><line class="cls-2" x1="8" y1="385.28" x2="8" y2="201.28"/><path class="cls-2" d="M800,1128.47c0,12.64,10.56,22.88,23.52,22.88" transform="translate(-792 -743.19)"/><line class="cls-2" x1="408" y1="32.96" x2="408" y2="201.28"/><path class="cls-2" d="M1200,776.15c0-13.76-11.68-25-25.92-25" transform="translate(-792 -743.19)"/><line class="cls-2" x1="208" y1="8" x2="382.08" y2="8"/><line class="cls-2" x1="408" y1="385.28" x2="408" y2="201.28"/><path class="cls-2" d="M1200,1128.47c0,12.64-10.56,22.88-23.52,22.88" transform="translate(-792 -743.19)"/><polyline class="cls-2" points="31.52 408.16 112 408.16 208 505.6 304.48 408.16 384.48 408.16"/></g><g id="Layer_3" data-name="Layer 3"><polygon class="cls-3" points="374.72 297.77 374.72 313.77 358.08 313.77 358.08 279.21 374.72 297.77"/><polygon class="cls-3" points="228.8 201.29 315.36 201.29 330.72 214.89 330.72 248.81 311.36 263.85 330.72 276.81 330.72 318.09 344.64 324.49 344.64 344.81 323.04 344.81 300.64 297.45 276.64 297.45 276.64 279.21 245.28 279.21 236.96 263.85 200 263.85 184.48 297.45 168.96 304.33 168.96 344.81 133.44 344.81 152.96 331.85 152.96 276.81 120.96 276.81 120.96 263.85 104 248.81 54.08 248.81 54.08 218.73 97.92 218.73 97.92 186.73 152.96 186.73 168.96 216.17 184.48 201.29 228.8 201.29"/><polygon class="cls-3" points="344.64 101.77 311.84 137.45 263.36 152.01 228.8 201.29 184.48 201.29 168.96 216.17 152.96 186.73 168.96 186.73 168.96 166.89 200 166.89 200 101.77 180 89.77 184.48 70.09 200 56.81 228.64 56.81 245.28 68.17 276.64 83.53 304.64 101.77 344.64 101.77"/><polygon class="cls-3" points="267.36 307.53 267.36 344.81 228.64 344.81 245.28 331.85 245.28 313.77 267.36 307.53"/><polygon class="cls-3" points="152.96 117.13 168.96 117.13 168.96 166.89 168.96 186.73 152.96 186.73 97.92 186.73 88.96 172.81 88.96 117.13 104 117.13 152.96 117.13"/><polygon class="cls-3" points="120.96 276.81 120.96 331.85 104 344.81 54.08 344.81 34.08 331.85 34.08 263.85 54.08 248.81 104 248.81 120.96 263.85 120.96 276.81"/><polyline class="cls-2" points="97.92 186.73 152.96 186.73 168.96 186.73"/><polyline class="cls-2" points="97.92 186.73 88.96 172.81 88.96 117.13 104 117.13 152.96 117.13 168.96 117.13 168.96 166.89 168.96 186.73"/><polyline class="cls-2" points="54.08 248.81 54.08 218.73 97.92 218.73 97.92 186.73"/><polygon class="cls-2" points="54.08 248.81 104 248.81 120.96 263.85 120.96 276.81 120.96 331.85 104 344.81 54.08 344.81 34.08 331.85 34.08 263.85 54.08 248.81"/><line class="cls-2" x1="64" y1="276.81" x2="96" y2="276.81"/><line class="cls-2" x1="64" y1="313.77" x2="96" y2="313.77"/><polyline class="cls-2" points="152.96 95.85 152.96 117.13 152.96 119.85"/><polyline class="cls-2" points="104 95.85 104 117.13 104 119.85"/><polyline class="cls-2" points="152.96 331.85 152.96 276.81 120.96 276.81"/><polyline class="cls-2" points="330.72 248.81 330.72 214.89 315.36 201.29 228.8 201.29 184.48 201.29 168.96 216.17 152.96 186.73"/><polyline class="cls-2" points="330.72 248.81 311.36 263.85 330.72 276.81 330.72 318.09 344.64 324.49 344.64 344.81 323.04 344.81 304.64 344.81"/><line class="cls-2" x1="358.08" y1="279.21" x2="330.72" y2="248.81"/><polygon class="cls-2" points="358.08 279.21 358.08 313.77 374.72 313.77 374.72 297.77 358.08 279.21"/><polyline class="cls-2" points="323.04 344.81 300.64 297.45 276.64 297.45"/><line class="cls-2" x1="276.64" y1="297.45" x2="267.36" y2="307.53"/><polygon class="cls-2" points="267.36 307.53 267.36 344.81 228.64 344.81 245.28 331.85 245.28 313.77 267.36 307.53"/><polyline class="cls-2" points="276.64 297.45 276.64 279.21 245.28 279.21 236.96 263.85 200 263.85 184.48 297.45 168.96 304.33 168.96 344.81 133.44 344.81 152.96 331.85"/><polyline class="cls-2" points="228.64 201.45 228.8 201.29 263.36 152.01 311.84 137.45 344.64 101.77 304.64 101.77 276.64 83.53 245.28 68.17 228.64 56.81 200 56.81 184.48 70.09 180 89.77 200 101.77 200 166.89 168.96 166.89"/></g></svg>