<svg xmlns="http://www.w3.org/2000/svg" width="28" height="28" viewBox="0 0 26 32.31"><defs><style>.cls-1{fill:#bfb498;}.cls-2{fill:none;stroke:#000;}.cls-3{fill:#bf9169;}</style></defs><title>Sculpture_Marker new</title><g id="Layer_2" data-name="Layer 2"><path class="cls-1" d="M1012.5,996.53V1008a1.45,1.45,0,0,1-1.47,1.43h-5l-6,6.09-6-6.09h-5a1.45,1.45,0,0,1-1.47-1.43V986a1.59,1.59,0,0,1,1.62-1.56h21.76a1.59,1.59,0,0,1,1.62,1.56Z" transform="translate(-987 -983.95)"/><line class="cls-2" x1="0.5" y1="2.06" x2="0.5" y2="12.58"/><path class="cls-2" d="M987.5,986a1.59,1.59,0,0,1,1.62-1.56" transform="translate(-987 -983.95)"/><line class="cls-2" x1="13" y1="0.5" x2="2.12" y2="0.5"/><line class="cls-2" x1="0.5" y1="24.08" x2="0.5" y2="12.58"/><path class="cls-2" d="M987.5,1008a1.45,1.45,0,0,0,1.47,1.43" transform="translate(-987 -983.95)"/><line class="cls-2" x1="25.5" y1="2.06" x2="25.5" y2="12.58"/><path class="cls-2" d="M1012.5,986a1.59,1.59,0,0,0-1.62-1.56" transform="translate(-987 -983.95)"/><line class="cls-2" x1="13" y1="0.5" x2="23.88" y2="0.5"/><line class="cls-2" x1="25.5" y1="24.08" x2="25.5" y2="12.58"/><path class="cls-2" d="M1012.5,1008a1.45,1.45,0,0,1-1.47,1.43" transform="translate(-987 -983.95)"/><polyline class="cls-2" points="1.97 25.51 7 25.51 13 31.6 19.03 25.51 24.03 25.51"/></g><g id="Layer_3" data-name="Layer 3"><path class="cls-3" d="M1004.53,991.67v2a2.17,2.17,0,0,1-2,2.29v8h-5v-9.06a1.13,1.13,0,0,1-1.05-1.2c0-1.78.91-3.21,2.05-3.21V988a1.52,1.52,0,0,1,1.53-1.52c.81,0,1.47,1.12,1.47,2.5v2.67h1a1.12,1.12,0,0,1,1.08-1.17A1.07,1.07,0,0,1,1004.53,991.67Z" transform="translate(-987 -983.95)"/><polygon class="cls-3" points="15.5 20.02 17.53 20.02 17.53 22.49 8.44 22.49 8.44 20.02 10.47 20.02 15.5 20.02"/><polyline class="cls-2" points="6.97 22.49 8.44 22.49 17.53 22.49 18.97 22.49"/><polyline class="cls-2" points="8.44 22.49 8.44 20.02 10.47 20.02 15.5 20.02 17.53 20.02 17.53 22.49 17.53 22.52"/><path class="cls-2" d="M1004.53,993.71a2.17,2.17,0,0,1-2,2.29v8" transform="translate(-987 -983.95)"/><path class="cls-2" d="M1004.53,993.71v-2a1.07,1.07,0,0,0-.95-1.17" transform="translate(-987 -983.95)"/><path class="cls-2" d="M998.47,988a1.52,1.52,0,0,1,1.53-1.52" transform="translate(-987 -983.95)"/><path class="cls-2" d="M1001.47,989c0-1.38-.66-2.5-1.47-2.5" transform="translate(-987 -983.95)"/><path class="cls-2" d="M998.47,988v2.48c-1.14,0-2.05,1.43-2.05,3.21a1.13,1.13,0,0,0,1.05,1.2V1004" transform="translate(-987 -983.95)"/><path class="cls-2" d="M1003.58,990.5a1.12,1.12,0,0,0-1.08,1.17h-1V989" transform="translate(-987 -983.95)"/></g></svg>