<svg xmlns="http://www.w3.org/2000/svg" width="28" height="28" viewBox="0 0 26 32.31"><defs><style>.cls-1{fill:#fed88c;}.cls-2{fill:none;stroke:#000;}.cls-3{fill:#feb024;}.cls-4{font-size:8px;font-family:Spectral-ExtraLight, Spectral;}.cls-5{letter-spacing:-0.01em;}</style></defs><title>Confraternity_Marker new</title><g id="Outline"><path class="cls-1" d="M1012.5,996.54V1008a1.45,1.45,0,0,1-1.47,1.43h-5l-6,6.09-6-6.09h-5a1.45,1.45,0,0,1-1.47-1.43V986a1.59,1.59,0,0,1,1.62-1.56h21.76a1.59,1.59,0,0,1,1.62,1.56Z" transform="translate(-987 -983.96)"/><line class="cls-2" x1="0.5" y1="2.06" x2="0.5" y2="12.58"/><path class="cls-2" d="M987.5,986a1.59,1.59,0,0,1,1.62-1.56" transform="translate(-987 -983.96)"/><line class="cls-2" x1="13" y1="0.5" x2="2.12" y2="0.5"/><line class="cls-2" x1="0.5" y1="24.08" x2="0.5" y2="12.58"/><path class="cls-2" d="M987.5,1008a1.45,1.45,0,0,0,1.47,1.43" transform="translate(-987 -983.96)"/><line class="cls-2" x1="25.5" y1="2.06" x2="25.5" y2="12.58"/><path class="cls-2" d="M1012.5,986a1.59,1.59,0,0,0-1.62-1.56" transform="translate(-987 -983.96)"/><line class="cls-2" x1="13" y1="0.5" x2="23.88" y2="0.5"/><line class="cls-2" x1="25.5" y1="24.08" x2="25.5" y2="12.58"/><path class="cls-2" d="M1012.5,1008a1.45,1.45,0,0,1-1.47,1.43" transform="translate(-987 -983.96)"/><polyline class="cls-2" points="1.97 25.51 7 25.51 13 31.6 19.03 25.51 24.03 25.51"/></g><g id="Symbol_borders" data-name="Symbol borders"><circle class="cls-3" cx="13" cy="14.04" r="10.56"/><circle class="cls-2" cx="13" cy="14.04" r="10.56"/></g><g id="inner_border" data-name="inner border"><ellipse class="cls-1" cx="13" cy="14.04" rx="8.5" ry="8.58"/><ellipse class="cls-2" cx="13" cy="14.04" rx="8.5" ry="8.58"/><text class="cls-4" transform="translate(7.96 16.91)"><tspan class="cls-5">P</tspan><tspan x="4.54" y="0">V</tspan></text></g></svg>